<?xml version="1.0" standalone="no"?>
<!DOCTYPE svg PUBLIC "-//W3C//DTD SVG 20010904//EN"
 "http://www.w3.org/TR/2001/REC-SVG-20010904/DTD/svg10.dtd">
<svg version="1.0" xmlns="http://www.w3.org/2000/svg"
 width="578.000000pt" height="578.000000pt" viewBox="0 0 578.000000 578.000000"
 preserveAspectRatio="xMidYMid meet">
<metadata>
Created by potrace 1.14, written by Peter Selinger 2001-2017
</metadata>
<g transform="translate(0.000000,578.000000) scale(0.100000,-0.100000)"
fill="#000000" stroke="none">
<path d="M1300 5212 l0 -569 93 0 c406 -3 677 -80 832 -238 75 -77 77 -79 115
-155 60 -119 85 -322 59 -485 -45 -277 -224 -454 -537 -530 -141 -34 -278 -49
-469 -49 l-93 -1 0 -534 0 -534 23 -36 c12 -19 27 -44 32 -54 6 -10 114 -182
240 -383 127 -201 237 -378 245 -393 15 -24 61 -97 115 -181 12 -19 91 -145
175 -280 84 -135 190 -303 235 -375 45 -72 122 -194 171 -273 l89 -142 928 0
c756 0 927 2 920 13 -10 16 -246 330 -253 337 -3 3 -77 102 -165 220 -88 118
-162 217 -166 220 -3 3 -102 133 -219 290 -237 316 -391 520 -403 535 -4 6
-45 60 -90 120 -46 61 -165 219 -265 352 -174 231 -205 277 -186 271 38 -10
277 70 406 136 462 235 745 672 825 1276 14 109 6 550 -12 580 -1 3 -6 29 -9
59 -4 29 -9 57 -11 61 -3 4 -7 25 -11 46 -11 73 -81 269 -133 372 -75 152
-162 273 -283 393 -242 242 -558 399 -963 478 -92 18 -147 20 -667 20 l-568 1
0 -568z"/>
</g>
</svg>
